<?xml version="1.0" standalone="no"?><!DOCTYPE svg PUBLIC "-//W3C//DTD SVG 1.1//EN" "http://www.w3.org/Graphics/SVG/1.1/DTD/svg11.dtd"><svg t="1686850217087" class="icon" viewBox="0 0 1024 1024" version="1.1" xmlns="http://www.w3.org/2000/svg" p-id="8340" xmlns:xlink="http://www.w3.org/1999/xlink" width="200" height="200"><path d="M768 869.546667a17.066667 17.066667 0 0 1-17.066667-17.066667v-68.266667h-68.266666a17.066667 17.066667 0 1 1 0-34.133333h68.266666v-68.266667a17.066667 17.066667 0 1 1 34.133334 0v68.266667h68.266666a17.066667 17.066667 0 1 1 0 34.133333h-68.266666v68.266667a17.066667 17.066667 0 0 1-17.066667 17.066667z" p-id="8341"></path><path d="M768 956.603733c-51.712 0-96.529067-18.619733-133.239467-55.330133a181.213867 181.213867 0 0 1-24.9856-30.856533H170.666667c-66.030933 0-102.4-36.369067-102.4-102.4V256.853333c0-60.1088 30.122667-95.6416 85.333333-101.5296V86.186667a17.066667 17.066667 0 0 1 17.066667-17.066667h597.333333a17.066667 17.066667 0 0 1 17.066667 17.066667V238.933333h68.266666a17.066667 17.066667 0 0 1 17.066667 17.066667v354.952533c10.666667 7.1168 20.736 15.394133 30.0032 24.695467C937.1136 672.341333 955.733333 717.1584 955.733333 768.8704c0 51.7632-18.653867 96.3584-55.4496 132.5056-35.959467 36.573867-80.5376 55.227733-132.283733 55.227733z m-133.137067-110.728533a141.994667 141.994667 0 0 0 24.0128 31.232c30.5152 30.5152 66.2016 45.346133 109.124267 45.346133 42.8544 0 78.216533-14.7968 108.151467-45.226666C906.8032 847.121067 921.6 811.7248 921.6 768.8704c0-42.922667-14.830933-78.592-45.346133-109.1072a158.976 158.976 0 0 0-31.624534-24.712533c-22.289067-13.141333-48.059733-19.797333-76.629333-19.797334-42.990933 0-78.6944 14.574933-109.192533 44.5952C628.974933 690.176 614.4 725.896533 614.4 768.853333c0 28.040533 6.673067 53.5552 19.8144 75.793067 0.238933 0.426667 0.4608 0.8192 0.648533 1.2288zM170.666667 188.586667c-47.223467 0-68.266667 21.060267-68.266667 68.266666v511.163734c0 47.223467 21.0432 68.266667 68.266667 68.266666h421.700266C584.328533 815.4112 580.266667 792.849067 580.266667 768.853333c0-51.6096 18.295467-96.4096 54.408533-133.137066 36.881067-36.3008 81.664-54.596267 133.3248-54.596267 24.405333 0 47.2576 4.061867 68.266667 12.1344V273.066667H512a17.066667 17.066667 0 0 1-17.066667-17.066667v-67.413333H170.666667zM529.066667 238.933333h221.866666V103.253333H187.733333v51.2h324.266667a17.066667 17.066667 0 0 1 17.066667 17.066667V238.933333z" p-id="8342"></path></svg>